<svg viewBox="0 0 317 317" fill="none" xmlns="http://www.w3.org/2000/svg">
  <path
    d="M243.6 126.8C228 110.4 207.2 98.8 184 94V79.6C184 76.4 182.8 73.2 180.4 71.2C178 69.2 175.2 67.6 172 67.6H165.6L165.2 6C165.2 2.4 162.4 0 159.2 0C155.6 0 153.2 2.8 153.2 6L153.6 67.6H147.2C144 67.6 140.8 68.8 138.8 71.2C136.8 73.6 135.2 76.4 135.2 79.6V93.6C110.8 98.8 89.6 110.4 73.2 126.8C51.2 148.8 38 178.8 38 212.4C38 216 40.8 218.4 44 218.4H108C109.6 230 114.4 240.4 122.4 248.4C131.6 257.6 144.4 263.2 158.4 263.2C172.4 263.2 185.2 257.6 194.4 248.4C202.4 240.4 207.2 230 208.8 218.4H272.8C276.4 218.4 278.8 215.6 278.8 212.4C278.8 179.2 265.2 148.8 243.6 126.8ZM146.8 80H171.6V92C171.2 92 171.2 92 170.8 92C170 92 169.6 92 168.8 92C165.6 91.6 162 91.6 158.8 91.6C155.6 91.2 152.4 91.6 149.2 91.6C148.4 91.6 147.6 91.6 146.8 92V80ZM186 239.6C178.8 246.8 169.2 250.8 158.8 250.8C148 250.8 138.4 246.4 131.6 239.6C126 234 122 226.8 120.8 218.4H158.8H197.2C195.6 226.4 192 234 186 239.6ZM203.6 206H158.8H114H50.4C52 178.4 63.6 153.6 82 135.6C98.8 118.8 120.8 107.6 145.6 104.8C146.4 104.8 147.6 104.4 148.4 104.4C151.6 104 155.2 104 158.4 104C162 104 165.2 104 168.8 104.4C169.6 104.4 170.8 104.8 171.6 104.8C196.4 107.6 218.4 118.8 235.2 135.6C253.6 154 265.2 178.4 266.8 206H203.6Z"
    fill="black" />
</svg>