<svg viewBox="0 0 234 237" fill="none" xmlns="http://www.w3.org/2000/svg">
  <path
    d="M223.931 145.104V123.896C227.831 123.885 230.989 120.727 231 116.828V95.6205C230.989 91.7211 227.831 88.5628 223.931 88.5516V67.3449C227.831 67.3333 230.989 64.1754 231 60.276V39.0689C230.989 35.1695 227.831 32.0112 223.931 32H192.121C188.221 32.0112 185.063 35.1695 185.052 39.0689H163.845C163.833 35.1695 160.675 32.0112 156.776 32H33.0689C29.1695 32.0112 26.0112 35.1695 26 39.0689V60.276C26.0116 64.1754 29.1695 67.3337 33.0689 67.3449V88.552C29.1695 88.5632 26.0112 91.7215 26 95.6209V116.828C26.0116 120.727 29.1695 123.886 33.0689 123.897V145.104C29.1695 145.115 26.0112 148.273 26 152.172V173.38C26.0116 177.279 29.1695 180.437 33.0689 180.448V201.656C29.1695 201.667 26.0112 204.825 26 208.724V229.931C26.0116 233.831 29.1695 236.989 33.0689 237H64.8791C68.7785 236.988 71.9368 233.831 71.948 229.931H93.1551C93.1667 233.831 96.3246 236.989 100.224 237H223.931C227.831 236.988 230.989 233.831 231 229.931V208.724C230.989 204.825 227.831 201.666 223.931 201.655V180.448C227.831 180.436 230.989 177.279 231 173.379V152.172C230.989 148.273 227.831 145.115 223.931 145.104Z"
    fill="#FCCC88" />
  <path
    d="M33.0689 32H156.776C160.68 32 163.845 35.1647 163.845 39.0689V60.276C163.845 64.1802 160.68 67.3449 156.776 67.3449H33.0689C29.1647 67.3449 26 64.1798 26 60.276V39.0689C26 35.1647 29.1647 32 33.0689 32Z"
    fill="#CD4F38" />
  <path
    d="M192.121 32H223.931C227.835 32 231 35.1647 231 39.0689V60.276C231 64.1802 227.835 67.3449 223.931 67.3449H192.121C188.217 67.3449 185.052 64.1802 185.052 60.276V39.0689C185.051 35.1647 188.217 32 192.121 32Z"
    fill="#DC6C33" />
  <path
    d="M100.224 201.655H223.931C227.835 201.655 231 204.82 231 208.724V229.931C231 233.835 227.835 237 223.931 237H100.224C96.3197 237 93.155 233.835 93.155 229.931V208.724C93.155 204.82 96.3201 201.655 100.224 201.655Z"
    fill="#CD4F38" />
  <path
    d="M33.0689 201.655H64.8791C68.7833 201.655 71.948 204.82 71.948 208.724V229.931C71.948 233.835 68.7833 237 64.8791 237H33.0689C29.1647 237 26 233.835 26 229.931V208.724C26 204.82 29.1647 201.655 33.0689 201.655Z"
    fill="#DC6C33" />
  <path
    d="M33.0689 145.104H156.776C160.68 145.104 163.845 148.269 163.845 152.172V173.379C163.845 177.284 160.68 180.448 156.776 180.448H33.0689C29.1647 180.448 26 177.283 26 173.379V152.172C26 148.268 29.1647 145.104 33.0689 145.104Z"
    fill="#DC6C33" />
  <path
    d="M192.121 145.104H223.931C227.835 145.104 231 148.269 231 152.172V173.379C231 177.284 227.835 180.448 223.931 180.448H192.121C188.217 180.448 185.052 177.284 185.052 173.379V152.172C185.051 148.268 188.217 145.104 192.121 145.104Z"
    fill="#CD4F38" />
  <path
    d="M100.224 88.5516H223.931C227.835 88.5516 231 91.7162 231 95.6205V116.828C231 120.732 227.835 123.896 223.931 123.896H100.224C96.3197 123.896 93.155 120.732 93.155 116.828V95.6205C93.155 91.7166 96.3201 88.5516 100.224 88.5516Z"
    fill="#ED634C" />
  <path
    d="M33.0689 88.5516H64.8791C68.7833 88.5516 71.948 91.7162 71.948 95.6205V116.828C71.948 120.732 68.7833 123.896 64.8791 123.896H33.0689C29.1647 123.896 26 120.732 26 116.828V95.6205C26 91.7166 29.1647 88.5516 33.0689 88.5516Z"
    fill="#EC9130" />
  <path
    d="M33.0689 32H156.776C160.68 32 163.845 35.1647 163.845 39.0689V60.276C163.845 64.1802 160.68 67.3449 156.776 67.3449H33.0689C29.1647 67.3449 26 64.1798 26 60.276V39.0689C26 35.1647 29.1647 32 33.0689 32Z"
    fill="#CD4F38" />
  <path
    d="M192.121 32H223.931C227.835 32 231 35.1647 231 39.0689V60.276C231 64.1802 227.835 67.3449 223.931 67.3449H192.121C188.217 67.3449 185.052 64.1802 185.052 60.276V39.0689C185.051 35.1647 188.217 32 192.121 32Z"
    fill="#EC9130" />
  <path
    d="M100.224 201.655H223.931C227.835 201.655 231 204.82 231 208.724V229.931C231 233.835 227.835 237 223.931 237H100.224C96.3197 237 93.155 233.835 93.155 229.931V208.724C93.155 204.82 96.3201 201.655 100.224 201.655Z"
    fill="#CD4F38" />
  <path
    d="M33.0689 201.655H64.8791C68.7833 201.655 71.948 204.82 71.948 208.724V229.931C71.948 233.835 68.7833 237 64.8791 237H33.0689C29.1647 237 26 233.835 26 229.931V208.724C26 204.82 29.1647 201.655 33.0689 201.655Z"
    fill="#DC6C33" />
  <path
    d="M33.0689 145.104H156.776C160.68 145.104 163.845 148.269 163.845 152.172V173.379C163.845 177.284 160.68 180.448 156.776 180.448H33.0689C29.1647 180.448 26 177.283 26 173.379V152.172C26 148.268 29.1647 145.104 33.0689 145.104Z"
    fill="#DC6C33" />
  <path
    d="M192.121 145.104H223.931C227.835 145.104 231 148.269 231 152.172V173.379C231 177.284 227.835 180.448 223.931 180.448H192.121C188.217 180.448 185.052 177.284 185.052 173.379V152.172C185.051 148.268 188.217 145.104 192.121 145.104Z"
    fill="#CD4F38" />
  <path
    d="M100.224 88.5516H223.931C227.835 88.5516 231 91.7162 231 95.6205V116.828C231 120.732 227.835 123.896 223.931 123.896H100.224C96.3197 123.896 93.155 120.732 93.155 116.828V95.6205C93.155 91.7166 96.3201 88.5516 100.224 88.5516Z"
    fill="#DC6C33" />
  <path
    d="M33.0689 88.5516H64.8791C68.7833 88.5516 71.948 91.7162 71.948 95.6205V116.828C71.948 120.732 68.7833 123.896 64.8791 123.896H33.0689C29.1647 123.896 26 120.732 26 116.828V95.6205C26 91.7166 29.1647 88.5516 33.0689 88.5516Z"
    fill="#EC9130" />
  <g filter="url(#filter0_dd)">
    <rect x="60" y="90" width="144" height="90" fill="#C4C4C4" />
  </g>
  <path
    d="M130.422 139.039C130.422 142.383 129.859 145.305 128.734 147.805C127.609 150.289 126.016 152.188 123.953 153.5C121.891 154.812 119.484 155.469 116.734 155.469C114.047 155.469 111.664 154.812 109.586 153.5C107.508 152.172 105.891 150.289 104.734 147.852C103.594 145.398 103.008 142.562 102.977 139.344V136.883C102.977 133.602 103.547 130.703 104.688 128.188C105.828 125.672 107.438 123.75 109.516 122.422C111.609 121.078 114 120.406 116.688 120.406C119.422 120.406 121.828 121.07 123.906 122.398C126 123.711 127.609 125.625 128.734 128.141C129.859 130.641 130.422 133.555 130.422 136.883V139.039ZM125.945 136.836C125.945 132.789 125.133 129.688 123.508 127.531C121.883 125.359 119.609 124.273 116.688 124.273C113.844 124.273 111.602 125.359 109.961 127.531C108.336 129.688 107.5 132.688 107.453 136.531V139.039C107.453 142.961 108.273 146.047 109.914 148.297C111.57 150.531 113.844 151.648 116.734 151.648C119.641 151.648 121.891 150.594 123.484 148.484C125.078 146.359 125.898 143.32 125.945 139.367V136.836ZM149.688 141.195H141.672V155H137.148V120.875H148.445C152.289 120.875 155.242 121.75 157.305 123.5C159.383 125.25 160.422 127.797 160.422 131.141C160.422 133.266 159.844 135.117 158.688 136.695C157.547 138.273 155.953 139.453 153.906 140.234L161.922 154.719V155H157.094L149.688 141.195ZM141.672 137.516H148.586C150.82 137.516 152.594 136.938 153.906 135.781C155.234 134.625 155.898 133.078 155.898 131.141C155.898 129.031 155.266 127.414 154 126.289C152.75 125.164 150.938 124.594 148.562 124.578H141.672V137.516Z"
    fill="black" />
  <path d="M0 138H16V170H60" stroke="black" stroke-width="5" />
  <path d="M18 0V111H60" stroke="black" stroke-width="5" />
  <line x1="204" y1="139" x2="234" y2="139" stroke="black" stroke-width="5" />
  <defs>
    <filter id="filter0_dd" x="56" y="90" width="152" height="98" filterUnits="userSpaceOnUse"
      color-interpolation-filters="sRGB">
      <feFlood flood-opacity="0" result="BackgroundImageFix" />
      <feColorMatrix in="SourceAlpha" type="matrix" values="0 0 0 0 0 0 0 0 0 0 0 0 0 0 0 0 0 0 127 0" />
      <feOffset dy="4" />
      <feGaussianBlur stdDeviation="2" />
      <feColorMatrix type="matrix" values="0 0 0 0 0 0 0 0 0 0 0 0 0 0 0 0 0 0 0.25 0" />
      <feBlend mode="normal" in2="BackgroundImageFix" result="effect1_dropShadow" />
      <feColorMatrix in="SourceAlpha" type="matrix" values="0 0 0 0 0 0 0 0 0 0 0 0 0 0 0 0 0 0 127 0" />
      <feOffset dy="4" />
      <feGaussianBlur stdDeviation="2" />
      <feColorMatrix type="matrix" values="0 0 0 0 0 0 0 0 0 0 0 0 0 0 0 0 0 0 0.25 0" />
      <feBlend mode="normal" in2="effect1_dropShadow" result="effect2_dropShadow" />
      <feBlend mode="normal" in="SourceGraphic" in2="effect2_dropShadow" result="shape" />
    </filter>
  </defs>
</svg>